HIERARCHY
ROOT Hips
{
  OFFSET 0 0 0
  CHANNELS 6 Xposition Yposition Zposition Zrotation Yrotation Xrotation
  JOINT LeftThigh
  {
    OFFSET 8.409438 0 -5.917753
    CHANNELS 3 Zrotation Yrotation Xrotation
    JOINT LeftLeg
    {
      OFFSET 0 0 -42.358652
      CHANNELS 3 Zrotation Yrotation Xrotation
      JOINT LeftFoot
      {
        OFFSET 0 0 -39.357303
        CHANNELS 3 Zrotation Yrotation Xrotation
      }
    }
  }
  JOINT RightThigh
  {
    OFFSET -8.409438 0 -5.917753
    CHANNELS 3 Zrotation Yrotation Xrotation
    JOINT RightLeg
    {
      OFFSET 0 0 -42.358652
      CHANNELS 3 Zrotation Yrotation Xrotation
      JOINT RightFoot
      {
        OFFSET 0 0 -39.357303
        CHANNELS 3 Zrotation Yrotation Xrotation
      }
    }
  }
  JOINT SpineLow
  {
    OFFSET 0 0 4.719101
    CHANNELS 3 Zrotation Yrotation Xrotation
    JOINT SpineMid
    {
      OFFSET 0 0 12.899191
      CHANNELS 3 Zrotation Yrotation Xrotation
      JOINT Chest
      {
        OFFSET 0 0 12.899191
        CHANNELS 3 Zrotation Yrotation Xrotation
        JOINT LeftShoulder
        {
          OFFSET 7.550562 1.41573 9.438202
          CHANNELS 3 Zrotation Yrotation Xrotation
          JOINT LeftArm
          {
            OFFSET 9.155056 0 4.247191
            CHANNELS 3 Zrotation Yrotation Xrotation
            JOINT LeftForearm
            {
              OFFSET 0 0 25.771955
              CHANNELS 3 Zrotation Yrotation Xrotation
              JOINT LeftHand
              {
                OFFSET 0 0 25.197169
                CHANNELS 3 Zrotation Yrotation Xrotation
              }
            }
          }
        }
        JOINT RightShoulder
        {
          OFFSET -7.550562 1.41573 9.438202
          CHANNELS 3 Zrotation Yrotation Xrotation
          JOINT RightArm
          {
            OFFSET -9.155056 0 4.247191
            CHANNELS 3 Zrotation Yrotation Xrotation
            JOINT RightForearm
            {
              OFFSET 0 0 -25.771955
              CHANNELS 3 Zrotation Yrotation Xrotation
              JOINT RightHand
              {
                OFFSET 0 0 -25.197169
                CHANNELS 3 Zrotation Yrotation Xrotation
              }
            }
          }
        }
        JOINT Neck
        {
          OFFSET 0 0 15.101124
          CHANNELS 3 Zrotation Yrotation Xrotation
          JOINT Head
          {
            OFFSET 0 0 11.325843
            CHANNELS 3 Zrotation Yrotation Xrotation
            End Site
            {
              OFFSET 0 0 14.157303
            }
          }
        }
      }
    }
  }
}
MOTION
Frames: 5
Frame Time: 0.0
0.0  101.685394  0.0  -0.506718  8.045459  -119.114235  15.718185  -16.702595  5.734081  -30.823978  22.399836  23.98889  -3.149005  1.84104  0.680251  6.643919  -11.504159  -103.531976  45.884639  0.880485  125.116768  24.844328  -16.628361  2.283904  -5.42394  1.348523  3.203747  -14.636563  4.373561  8.415889  -14.636562  4.373561  8.415889  15.160819  28.463448  27.328578  161.238868  71.502162  -151.519143  -50.741539  -34.155511  80.864754  54.881991  -13.898111  29.252703  41.583158  -5.335794  34.031731  94.036996  63.746998  26.39354  -37.230995  18.197819  -84.163316  90.428783  -33.837832  40.638191  7.900965  -2.205919  -2.858135  5.914827  -1.691765  -2.115223  
0.0  101.685394  0.0  -0.946294  8.801576  -119.685413  15.486937  -17.061577  6.179541  -31.746116  22.655484  24.129518  -3.187079  1.884325  0.551636  5.32494  -11.249616  -106.963719  45.98335  -1.17474  123.5744  23.929854  -19.653304  2.669306  -5.275993  1.467339  3.276453  -14.213789  4.69322  8.60048  -14.213789  4.69322  8.60048  14.6741  28.791928  28.758832  161.321833  68.535699  -150.519001  -48.825166  -31.562746  79.856366  58.777479  -11.901987  34.067059  39.45762  -7.103348  35.881121  94.045482  60.685648  25.988657  -34.935553  19.743138  -83.497046  86.279561  -33.513292  44.810102  7.052075  -2.511213  -3.179261  5.27531  -1.920454  -2.355442  
0.0  101.685394  0.0  -1.456452  9.626325  -120.485943  14.896548  -17.315722  6.759173  -32.434363  22.817749  24.448121  -3.172922  1.899694  0.480806  3.709351  -10.800419  -109.925697  45.457351  -3.205961  122.025194  22.703916  -22.44154  3.177693  -5.075558  1.538667  3.436646  -13.645249  4.894184  9.038732  -13.645248  4.894184  9.038732  13.316041  29.194229  29.955847  159.666717  66.283399  -150.960384  -48.005297  -28.632101  78.905684  62.790452  -9.225144  38.048444  37.182269  -8.734426  37.224936  94.259139  57.656369  25.859021  -32.652012  21.741076  -82.456635  82.511489  -33.939546  48.088775  5.99076  -2.691147  -3.467492  4.477138  -2.052655  -2.574037  
0.0  101.685394  0.0  -1.946908  10.307776  -121.440915  14.286241  -17.683331  7.512342  -32.954981  22.92613  24.837262  -3.35123  1.948978  0.343428  1.942575  -10.322127  -112.232549  44.579101  -2.845017  119.781587  22.686244  -24.671131  5.274127  -5.063428  1.607757  3.666602  -13.584712  5.126648  9.65319  -13.584713  5.126648  9.65319  12.685811  29.885142  30.358482  157.520788  64.472229  -152.004644  -47.893939  -24.97679  78.849316  61.643442  -9.897962  25.29754  36.372726  -9.892539  37.956768  94.968966  54.814182  25.955153  -31.099762  22.702717  -80.699317  80.717352  -33.213745  49.149763  5.621294  -2.817028  -3.779656  4.197879  -2.14784  -2.808523  
0.0  101.685394  0.0  -2.156202  10.457928  -122.034974  13.990558  -17.935085  7.668336  -32.964221  23.292404  25.601138  -3.583253  1.988772  0.178351  -7.842131  5.500002  -119.348492  25.397938  -7.837853  121.561648  20.621413  -27.385035  6.662928  -5.441618  1.756791  3.905664  -14.577748  5.636073  10.24141  -14.577747  5.636073  10.241411  15.373345  30.730627  30.510371  152.215821  63.617513  -154.116106  -53.29693  -23.187079  84.018233  57.798107  -2.087678  26.067835  38.784651  -10.207202  38.255167  95.648227  52.897458  24.855608  -31.293109  23.09956  -77.33497  76.207386  -27.598273  43.323265  6.9309  -2.99246  -4.320855  5.17613  -2.29382  -3.20643  
